<svg width="17" height="11" viewBox="0 0 17 11" fill="none" xmlns="http://www.w3.org/2000/svg">
<path d="M4.77148 0.174805C4.2192 0.174805 3.77148 0.62252 3.77148 1.1748C3.77148 1.72709 4.2192 2.1748 4.77148 2.1748V0.174805ZM15.7715 2.1748C16.3238 2.1748 16.7715 1.72709 16.7715 1.1748C16.7715 0.62252 16.3238 0.174805 15.7715 0.174805V2.1748ZM4.77148 4.1748C4.2192 4.1748 3.77148 4.62252 3.77148 5.1748C3.77148 5.72709 4.2192 6.1748 4.77148 6.1748V4.1748ZM15.7715 6.1748C16.3238 6.1748 16.7715 5.72709 16.7715 5.1748C16.7715 4.62252 16.3238 4.1748 15.7715 4.1748V6.1748ZM4.77148 8.1748C4.2192 8.1748 3.77148 8.62252 3.77148 9.1748C3.77148 9.72709 4.2192 10.1748 4.77148 10.1748V8.1748ZM15.7715 10.1748C16.3238 10.1748 16.7715 9.72709 16.7715 9.1748C16.7715 8.62252 16.3238 8.1748 15.7715 8.1748V10.1748ZM2.77148 1.1748C2.77148 0.62252 2.32377 0.174805 1.77148 0.174805C1.2192 0.174805 0.771484 0.62252 0.771484 1.1748H2.77148ZM0.771484 1.1848C0.771484 1.73708 1.2192 2.1848 1.77148 2.1848C2.32377 2.1848 2.77148 1.73708 2.77148 1.1848H0.771484ZM2.77148 5.1748C2.77148 4.62252 2.32377 4.1748 1.77148 4.1748C1.2192 4.1748 0.771484 4.62252 0.771484 5.1748H2.77148ZM0.771484 5.1848C0.771484 5.73708 1.2192 6.1848 1.77148 6.1848C2.32377 6.1848 2.77148 5.73708 2.77148 5.1848H0.771484ZM2.77148 9.1748C2.77148 8.62252 2.32377 8.1748 1.77148 8.1748C1.2192 8.1748 0.771484 8.62252 0.771484 9.1748H2.77148ZM0.771484 9.1848C0.771484 9.73708 1.2192 10.1848 1.77148 10.1848C2.32377 10.1848 2.77148 9.73708 2.77148 9.1848H0.771484ZM4.77148 2.1748H15.7715V0.174805H4.77148V2.1748ZM4.77148 6.1748H15.7715V4.1748H4.77148V6.1748ZM4.77148 10.1748H15.7715V8.1748H4.77148V10.1748ZM0.771484 1.1748V1.1848H2.77148V1.1748H0.771484ZM0.771484 5.1748V5.1848H2.77148V5.1748H0.771484ZM0.771484 9.1748V9.1848H2.77148V9.1748H0.771484Z" fill="#1E1E1E"/>
</svg>
