<svg width="20" height="20" viewBox="0 0 20 20" fill="none" xmlns="http://www.w3.org/2000/svg">
<path d="M5.99512 5.1748C5.44283 5.1748 4.99512 5.62252 4.99512 6.1748C4.99512 6.72709 5.44283 7.1748 5.99512 7.1748V5.1748ZM13.9951 7.1748C14.5474 7.1748 14.9951 6.72709 14.9951 6.1748C14.9951 5.62252 14.5474 5.1748 13.9951 5.1748V7.1748ZM5.99512 9.1748C5.44283 9.1748 4.99512 9.62252 4.99512 10.1748C4.99512 10.7271 5.44283 11.1748 5.99512 11.1748V9.1748ZM13.9951 11.1748C14.5474 11.1748 14.9951 10.7271 14.9951 10.1748C14.9951 9.62252 14.5474 9.1748 13.9951 9.1748V11.1748ZM7.99512 13.1748C7.44283 13.1748 6.99512 13.6225 6.99512 14.1748C6.99512 14.7271 7.44283 15.1748 7.99512 15.1748V13.1748ZM11.9951 15.1748C12.5474 15.1748 12.9951 14.7271 12.9951 14.1748C12.9951 13.6225 12.5474 13.1748 11.9951 13.1748V15.1748ZM5.99512 7.1748H13.9951V5.1748H5.99512V7.1748ZM5.99512 11.1748H13.9951V9.1748H5.99512V11.1748ZM7.99512 15.1748H11.9951V13.1748H7.99512V15.1748ZM2.49512 10.1748C2.49512 6.96204 3.00542 5.20372 4.01472 4.19441C5.02403 3.18511 6.78235 2.6748 9.99512 2.6748V0.674805C6.70788 0.674805 4.21621 1.1645 2.60051 2.7802C0.984814 4.39589 0.495117 6.88757 0.495117 10.1748H2.49512ZM9.99512 17.6748C6.78235 17.6748 5.02403 17.1645 4.01472 16.1552C3.00542 15.1459 2.49512 13.3876 2.49512 10.1748H0.495117C0.495117 13.462 0.984814 15.9537 2.60051 17.5694C4.21621 19.1851 6.70788 19.6748 9.99512 19.6748V17.6748ZM17.4951 10.1748C17.4951 13.3876 16.9848 15.1459 15.9755 16.1552C14.9662 17.1645 13.2079 17.6748 9.99512 17.6748V19.6748C13.2824 19.6748 15.774 19.1851 17.3897 17.5694C19.0054 15.9537 19.4951 13.462 19.4951 10.1748H17.4951ZM9.99512 2.6748C13.2079 2.6748 14.9662 3.18511 15.9755 4.19441C16.9848 5.20372 17.4951 6.96204 17.4951 10.1748H19.4951C19.4951 6.88757 19.0054 4.39589 17.3897 2.7802C15.774 1.1645 13.2824 0.674805 9.99512 0.674805V2.6748Z" fill="#1E1E1E"/>
</svg>
