<svg width="311" height="58" viewBox="0 0 311 58" fill="none" xmlns="http://www.w3.org/2000/svg">
<rect x="130.776" y="0.847515" width="56.305" height="56.305" rx="28.1525" stroke="#1E1E1E" stroke-width="0.407189"/>
<path d="M153.789 18.6028C154.682 18.6028 155.538 18.9575 156.17 19.589C156.801 20.2205 157.156 21.077 157.156 21.9701V35.4392C157.156 36.3323 156.801 37.1888 156.17 37.8202C155.538 38.4517 154.682 38.8065 153.789 38.8065C152.896 38.8065 152.039 38.4517 151.408 37.8202C150.776 37.1888 150.421 36.3323 150.421 35.4392V21.9701C150.421 21.077 150.776 20.2205 151.408 19.589C152.039 18.9575 152.896 18.6028 153.789 18.6028ZM165.013 18.6028C165.906 18.6028 166.763 18.9575 167.394 19.589C168.025 20.2205 168.38 21.077 168.38 21.9701V35.4392C168.38 36.3323 168.025 37.1888 167.394 37.8202C166.763 38.4517 165.906 38.8065 165.013 38.8065C164.12 38.8065 163.263 38.4517 162.632 37.8202C162 37.1888 161.646 36.3323 161.646 35.4392V21.9701C161.646 21.077 162 20.2205 162.632 19.589C163.263 18.9575 164.12 18.6028 165.013 18.6028Z" fill="#1E1E1E"/>
<path d="M226.797 18.9107C226.546 18.733 226.25 18.6278 225.943 18.6067C225.635 18.5856 225.328 18.6494 225.055 18.7911C224.781 18.9328 224.552 19.147 224.392 19.4102C224.232 19.6734 224.147 19.9755 224.147 20.2836V37.2048C224.147 37.5128 224.232 37.815 224.392 38.0782C224.552 38.3414 224.781 38.5556 225.055 38.6973C225.328 38.839 225.635 38.9027 225.943 38.8817C226.25 38.8606 226.546 38.7554 226.797 38.5777L238.783 30.117C239.003 29.9619 239.182 29.7562 239.306 29.5173C239.43 29.2784 239.495 29.0133 239.495 28.7442C239.495 28.4751 239.43 28.21 239.306 27.9711C239.182 27.7322 239.003 27.5265 238.783 27.3713L226.797 18.9107ZM225.828 20.2836L237.814 28.7442L225.828 37.2048V20.2836Z" fill="#1E1E1E"/>
<path d="M244.312 19.502C244.312 19.2792 244.223 19.0655 244.066 18.9079C243.908 18.7503 243.695 18.6618 243.472 18.6618C243.249 18.6618 243.035 18.7503 242.878 18.9079C242.72 19.0655 242.632 19.2792 242.632 19.502V37.986C242.632 38.2088 242.72 38.4225 242.878 38.5801C243.035 38.7376 243.249 38.8261 243.472 38.8261C243.695 38.8261 243.908 38.7376 244.066 38.5801C244.223 38.4225 244.312 38.2088 244.312 37.986V19.502Z" fill="#1E1E1E"/>
<path d="M90.4291 38.5777C90.6807 38.7554 90.9763 38.8606 91.2836 38.8817C91.5909 38.9027 91.8981 38.839 92.1716 38.6973C92.4452 38.5556 92.6745 38.3414 92.8345 38.0782C92.9945 37.815 93.0791 37.5128 93.079 37.2048V20.2836C93.0791 19.9755 92.9945 19.6734 92.8345 19.4102C92.6745 19.147 92.4452 18.9328 92.1716 18.7911C91.8981 18.6494 91.5909 18.5856 91.2836 18.6067C90.9763 18.6278 90.6807 18.733 90.4291 18.9107L78.4431 27.3713C78.2233 27.5265 78.0439 27.7322 77.9201 27.9711C77.7963 28.21 77.7317 28.4751 77.7317 28.7442C77.7317 29.0133 77.7963 29.2784 77.9201 29.5173C78.0439 29.7562 78.2233 29.9619 78.4431 30.117L90.4291 38.5777ZM91.3987 37.2048L79.4127 28.7442L91.3987 20.2836V37.2048Z" fill="#1E1E1E"/>
<path d="M72.9148 37.986C72.9148 38.2088 73.0033 38.4225 73.1609 38.5801C73.3184 38.7376 73.5321 38.8261 73.755 38.8261C73.9778 38.8261 74.1915 38.7376 74.3491 38.5801C74.5066 38.4225 74.5952 38.2088 74.5952 37.986V19.502C74.5952 19.2792 74.5066 19.0655 74.3491 18.9079C74.1915 18.7503 73.9778 18.6618 73.755 18.6618C73.5321 18.6618 73.3184 18.7503 73.1609 18.9079C73.0033 19.0655 72.9148 19.2792 72.9148 19.502V37.986Z" fill="#1E1E1E"/>
<path d="M22.4109 33.9047C22.5659 34.0597 22.6529 34.2699 22.6529 34.4891C22.6529 34.7082 22.5659 34.9184 22.4109 35.0734L19.9318 37.5525C19.8163 37.668 19.669 37.7467 19.5087 37.7786C19.3484 37.8105 19.1823 37.7942 19.0313 37.7316C18.8803 37.6691 18.7512 37.5631 18.6604 37.4272C18.5696 37.2913 18.5211 37.1316 18.5211 36.9681V35.3154H15.641C15.378 35.3152 15.1188 35.2523 14.8849 35.1319C14.651 35.0116 14.4492 34.8372 14.2961 34.6233L6.527 23.7463L1.16766 23.7464C0.948501 23.7464 0.738314 23.6594 0.583343 23.5044C0.428371 23.3494 0.341309 23.1392 0.341309 22.9201C0.341309 22.7009 0.428371 22.4907 0.583343 22.3358C0.738314 22.1808 0.948501 22.0937 1.16766 22.0937H6.52689C6.78992 22.094 7.0491 22.1569 7.28298 22.2772C7.51686 22.3976 7.7187 22.5719 7.87179 22.7858L15.641 33.6628H18.5211V32.01C18.5211 31.8466 18.5696 31.6868 18.6604 31.5509C18.7512 31.415 18.8803 31.3091 19.0313 31.2465C19.1823 31.184 19.3484 31.1676 19.5087 31.1995C19.669 31.2314 19.8163 31.3101 19.9318 31.4257L22.4109 33.9047ZM12.6346 26.5336C12.7229 26.5967 12.8228 26.6418 12.9285 26.6663C13.0342 26.6908 13.1437 26.6942 13.2508 26.6764C13.3578 26.6586 13.4603 26.6198 13.5524 26.5623C13.6445 26.5049 13.7243 26.4298 13.7874 26.3415L15.641 23.7464H18.5211V25.3991C18.5211 25.5626 18.5696 25.7224 18.6604 25.8583C18.7512 25.9942 18.8803 26.1001 19.0313 26.1626C19.1823 26.2252 19.3484 26.2415 19.5087 26.2097C19.669 26.1778 19.8163 26.0991 19.9318 25.9835L22.4109 23.5044C22.5659 23.3494 22.6529 23.1392 22.6529 22.9201C22.6529 22.7009 22.5659 22.4907 22.4109 22.3357L19.9318 19.8567C19.8163 19.7411 19.669 19.6624 19.5087 19.6305C19.3484 19.5986 19.1823 19.615 19.0313 19.6775C18.8803 19.7401 18.7512 19.846 18.6604 19.9819C18.5696 20.1178 18.5211 20.2776 18.5211 20.441V22.0937H15.641C15.378 22.094 15.1188 22.1569 14.8849 22.2772C14.651 22.3976 14.4492 22.5719 14.2961 22.7858L12.4425 25.3808C12.3794 25.4691 12.3343 25.5689 12.3098 25.6747C12.2854 25.7804 12.2819 25.8899 12.2998 25.9969C12.3176 26.104 12.3564 26.2065 12.4138 26.2985C12.4713 26.3906 12.5463 26.4705 12.6346 26.5335V26.5336ZM9.53328 30.8756C9.44498 30.8125 9.34512 30.7675 9.2394 30.743C9.13368 30.7185 9.02417 30.715 8.91713 30.7329C8.81008 30.7507 8.7076 30.7895 8.61553 30.8469C8.52345 30.9043 8.4436 30.9793 8.38051 31.0676L6.52689 33.6627H1.16766C0.948501 33.6627 0.738314 33.7498 0.583343 33.9047C0.428371 34.0597 0.341309 34.2699 0.341309 34.4891C0.341309 34.7082 0.428371 34.9184 0.583343 35.0734C0.738314 35.2284 0.948501 35.3154 1.16766 35.3154H6.52689C6.78992 35.3152 7.04909 35.2522 7.28297 35.1319C7.51684 35.0115 7.71869 34.8372 7.87179 34.6233L9.72541 32.0284C9.78849 31.9401 9.83355 31.8402 9.85804 31.7345C9.88252 31.6288 9.88594 31.5192 9.8681 31.4122C9.85026 31.3052 9.81151 31.2027 9.75406 31.1106C9.69661 31.0185 9.62159 30.9387 9.53328 30.8756Z" fill="#1E1E1E"/>
<path d="M306.939 22.3142H295.986L297.173 21.1367C297.345 20.9649 297.441 20.7317 297.441 20.4887C297.441 20.2456 297.345 20.0125 297.173 19.8406C297.001 19.6687 296.768 19.5721 296.525 19.5721C296.282 19.5721 296.048 19.6687 295.877 19.8406L293.138 22.5789C293.053 22.6638 292.985 22.7647 292.938 22.876C292.892 22.9872 292.868 23.1065 292.868 23.227C292.868 23.3475 292.892 23.4668 292.938 23.578C292.985 23.6893 293.053 23.7902 293.138 23.8751L295.877 26.6134C295.961 26.699 296.062 26.7669 296.174 26.8132C296.285 26.8596 296.404 26.8834 296.525 26.8834C296.645 26.8834 296.764 26.8596 296.876 26.8132C296.987 26.7669 297.088 26.699 297.173 26.6134C297.258 26.5286 297.326 26.4276 297.372 26.3164C297.419 26.2052 297.443 26.0859 297.443 25.9654C297.443 25.8449 297.419 25.7256 297.372 25.6143C297.326 25.5031 297.258 25.4021 297.173 25.3173L295.986 24.1398H306.939C307.126 24.1362 307.312 24.1694 307.486 24.2376C307.661 24.3059 307.82 24.4077 307.954 24.5374C308.089 24.6671 308.197 24.8221 308.272 24.9935C308.347 25.1649 308.387 25.3493 308.391 25.5364V27.7909C308.391 28.033 308.487 28.2652 308.658 28.4364C308.829 28.6075 309.061 28.7037 309.304 28.7037C309.546 28.7037 309.778 28.6075 309.949 28.4364C310.12 28.2652 310.216 28.033 310.216 27.7909V25.5364C310.213 25.1096 310.125 24.6878 309.959 24.2949C309.792 23.902 309.55 23.5458 309.245 23.2466C308.941 22.9474 308.581 22.711 308.185 22.5511C307.789 22.3911 307.366 22.3106 306.939 22.3142ZM307.213 30.794C307.041 30.6221 306.808 30.5255 306.565 30.5255C306.322 30.5255 306.089 30.6221 305.917 30.794C305.745 30.9659 305.649 31.199 305.649 31.4421C305.649 31.6851 305.745 31.9183 305.917 32.0901L307.104 33.2676H296.15C295.963 33.2713 295.777 33.238 295.603 33.1698C295.429 33.1016 295.27 32.9997 295.135 32.87C295.001 32.7403 294.893 32.5854 294.818 32.4139C294.743 32.2425 294.703 32.0581 294.699 31.8711V29.6165C294.699 29.3744 294.603 29.1422 294.432 28.9711C294.26 28.7999 294.028 28.7037 293.786 28.7037C293.544 28.7037 293.312 28.7999 293.141 28.9711C292.97 29.1422 292.873 29.3744 292.873 29.6165V31.8711C292.877 32.2978 292.965 32.7197 293.131 33.1125C293.298 33.5054 293.54 33.8616 293.845 34.1608C294.149 34.46 294.509 34.6964 294.905 34.8564C295.3 35.0163 295.724 35.0968 296.15 35.0932H307.104L305.917 36.2707C305.832 36.3555 305.764 36.4565 305.717 36.5677C305.671 36.679 305.647 36.7983 305.647 36.9188C305.647 37.0393 305.671 37.1586 305.717 37.2698C305.764 37.381 305.832 37.482 305.917 37.5668C306.002 37.6524 306.103 37.7203 306.214 37.7666C306.325 37.813 306.445 37.8368 306.565 37.8368C306.686 37.8368 306.805 37.813 306.916 37.7666C307.027 37.7203 307.128 37.6524 307.213 37.5668L309.952 34.8285C310.037 34.7436 310.105 34.6427 310.151 34.5315C310.198 34.4202 310.222 34.3009 310.222 34.1804C310.222 34.0599 310.198 33.9406 310.151 33.8294C310.105 33.7181 310.037 33.6172 309.952 33.5323L307.213 30.794Z" fill="#1E1E1E"/>
</svg>
