<svg width="21" height="19" viewBox="0 0 21 19" fill="none" xmlns="http://www.w3.org/2000/svg">
<path d="M2.54785 8.1748C2.54785 7.62252 2.10014 7.1748 1.54785 7.1748C0.995567 7.1748 0.547852 7.62252 0.547852 8.1748H2.54785ZM0.547852 10.1748C0.547852 10.7271 0.995567 11.1748 1.54785 11.1748C2.10014 11.1748 2.54785 10.7271 2.54785 10.1748H0.547852ZM5.54785 5.1748C5.54785 4.62252 5.10014 4.1748 4.54785 4.1748C3.99557 4.1748 3.54785 4.62252 3.54785 5.1748H5.54785ZM3.54785 13.1748C3.54785 13.7271 3.99557 14.1748 4.54785 14.1748C5.10014 14.1748 5.54785 13.7271 5.54785 13.1748H3.54785ZM8.54785 7.1748C8.54785 6.62252 8.10014 6.1748 7.54785 6.1748C6.99557 6.1748 6.54785 6.62252 6.54785 7.1748H8.54785ZM6.54785 11.1748C6.54785 11.7271 6.99557 12.1748 7.54785 12.1748C8.10014 12.1748 8.54785 11.7271 8.54785 11.1748H6.54785ZM11.5479 4.1748C11.5479 3.62252 11.1001 3.1748 10.5479 3.1748C9.99557 3.1748 9.54785 3.62252 9.54785 4.1748H11.5479ZM9.54785 14.1748C9.54785 14.7271 9.99557 15.1748 10.5479 15.1748C11.1001 15.1748 11.5479 14.7271 11.5479 14.1748H9.54785ZM14.5479 1.1748C14.5479 0.62252 14.1001 0.174805 13.5479 0.174805C12.9956 0.174805 12.5479 0.62252 12.5479 1.1748H14.5479ZM12.5479 17.1748C12.5479 17.7271 12.9956 18.1748 13.5479 18.1748C14.1001 18.1748 14.5479 17.7271 14.5479 17.1748H12.5479ZM17.5479 6.1748C17.5479 5.62252 17.1001 5.1748 16.5479 5.1748C15.9956 5.1748 15.5479 5.62252 15.5479 6.1748H17.5479ZM15.5479 12.1748C15.5479 12.7271 15.9956 13.1748 16.5479 13.1748C17.1001 13.1748 17.5479 12.7271 17.5479 12.1748H15.5479ZM20.5479 8.1748C20.5479 7.62252 20.1001 7.1748 19.5479 7.1748C18.9956 7.1748 18.5479 7.62252 18.5479 8.1748H20.5479ZM18.5479 10.1748C18.5479 10.7271 18.9956 11.1748 19.5479 11.1748C20.1001 11.1748 20.5479 10.7271 20.5479 10.1748H18.5479ZM0.547852 8.1748V10.1748H2.54785V8.1748H0.547852ZM3.54785 5.1748V13.1748H5.54785V5.1748H3.54785ZM6.54785 7.1748V11.1748H8.54785V7.1748H6.54785ZM9.54785 4.1748V14.1748H11.5479V4.1748H9.54785ZM12.5479 1.1748V17.1748H14.5479V1.1748H12.5479ZM15.5479 6.1748V12.1748H17.5479V6.1748H15.5479ZM18.5479 8.1748V10.1748H20.5479V8.1748H18.5479Z" fill="#1E1E1E"/>
</svg>
