<svg width="19" height="20" viewBox="0 0 19 20" fill="none" xmlns="http://www.w3.org/2000/svg">
<path d="M18.3242 11.1748C18.3242 10.6225 17.8765 10.1748 17.3242 10.1748C16.7719 10.1748 16.3242 10.6225 16.3242 11.1748H18.3242ZM2.32422 11.1748C2.32422 10.6225 1.8765 10.1748 1.32422 10.1748C0.771934 10.1748 0.324219 10.6225 0.324219 11.1748H2.32422ZM9.32422 1.1748L10.0313 0.467698C9.6408 0.0771737 9.00764 0.0771736 8.61711 0.467698L9.32422 1.1748ZM8.32422 13.1748C8.32422 13.7271 8.77193 14.1748 9.32422 14.1748C9.8765 14.1748 10.3242 13.7271 10.3242 13.1748H8.32422ZM12.6171 5.88191C13.0076 6.27244 13.6408 6.27244 14.0313 5.88191C14.4219 5.49139 14.4219 4.85822 14.0313 4.4677L12.6171 5.88191ZM4.61711 4.4677C4.22659 4.85822 4.22659 5.49139 4.61711 5.88191C5.00764 6.27243 5.6408 6.27243 6.03133 5.88191L4.61711 4.4677ZM16.3242 11.1748V15.6748H18.3242V11.1748H16.3242ZM2.32422 15.6748V11.1748H0.324219V15.6748H2.32422ZM16.3242 15.6748C16.3242 16.1946 16.166 16.4969 15.9403 16.7159C15.6822 16.9663 15.2509 17.1872 14.5861 17.3502C13.2314 17.6824 11.376 17.6748 9.32422 17.6748V19.6748C11.2724 19.6748 13.417 19.6961 15.0624 19.2927C15.8976 19.0879 16.7162 18.7499 17.3332 18.1512C17.9824 17.5211 18.3242 16.6839 18.3242 15.6748H16.3242ZM9.32422 17.6748C7.27244 17.6748 5.417 17.6824 4.06235 17.3502C3.39756 17.1872 2.96619 16.9663 2.70815 16.7159C2.48243 16.4969 2.32422 16.1946 2.32422 15.6748H0.324219C0.324219 16.6839 0.666007 17.5211 1.31529 18.1512C1.93225 18.7499 2.75088 19.0879 3.58608 19.2927C5.23144 19.6961 7.376 19.6748 9.32422 19.6748V17.6748ZM8.32422 1.1748L8.32422 13.1748H10.3242L10.3242 1.1748L8.32422 1.1748ZM14.0313 4.4677L10.0313 0.467698L8.61711 1.88191L12.6171 5.88191L14.0313 4.4677ZM8.61711 0.467698L4.61711 4.4677L6.03133 5.88191L10.0313 1.88191L8.61711 0.467698Z" fill="#1E1E1E"/>
</svg>
