<svg width="22" height="21" viewBox="0 0 22 21" fill="none" xmlns="http://www.w3.org/2000/svg">
<path d="M15.2719 20.0383C19.0642 18.3749 21.7221 14.76 21.7221 10.3613C21.7221 5.96254 19.0642 2.34764 15.2719 0.684265V2.83472C17.8384 4.32498 19.5717 7.18615 19.5717 10.3613C19.5717 13.5364 17.8384 16.3976 15.2719 17.8879V20.0383Z" fill="#1E1E1E"/>
<path d="M15.2719 4.98681V15.7391C16.5891 14.5563 17.4223 12.2672 17.4223 10.3629C17.4223 8.45871 16.5891 6.16956 15.2719 4.98681ZM2.3692 15.7391H5.26908L11.4495 19.8593C11.6116 19.967 11.7998 20.0288 11.9942 20.0383C12.1886 20.0478 12.3819 20.0045 12.5537 19.9131C12.7253 19.8212 12.8688 19.6845 12.9688 19.5174C13.0688 19.3504 13.1215 19.1594 13.1215 18.9647V1.76113C13.1213 1.56664 13.0685 1.37582 12.9685 1.20899C12.8685 1.04216 12.7252 0.905572 12.5537 0.813771C12.3823 0.721971 12.1891 0.678397 11.9948 0.687691C11.8006 0.696984 11.6125 0.758797 11.4506 0.866545L5.26908 4.98681H2.3692C1.18323 4.98681 0.21875 5.95128 0.21875 7.13726V13.5886C0.21875 14.7746 1.18323 15.7391 2.3692 15.7391ZM2.3692 7.13726H5.59487C5.63036 7.13726 5.66046 7.12005 5.69487 7.11683C5.83789 7.10225 5.97668 7.05988 6.10346 6.9921C6.13141 6.97597 6.16474 6.97382 6.19162 6.95662L10.971 3.76965V16.9562L6.19162 13.7692C6.16474 13.751 6.13141 13.7477 6.10346 13.7338C5.97648 13.6646 5.83671 13.6222 5.69272 13.609C5.65831 13.6058 5.62928 13.5886 5.59487 13.5886H2.3692V7.13726Z" fill="#1E1E1E"/>
</svg>
