<svg width="18" height="20" viewBox="0 0 18 20" fill="none" xmlns="http://www.w3.org/2000/svg">
<path d="M3.5 19.7501H14.5V18.2501H3.5V19.7501ZM9 11.7501C8.02022 11.7501 5.91427 11.7251 4.04781 12.2476C3.11067 12.5099 2.16804 12.9271 1.45112 13.6108C0.711899 14.3158 0.25 15.2708 0.25 16.5001H1.75C1.75 15.689 2.0381 15.1238 2.48638 14.6963C2.95696 14.2475 3.63933 13.9196 4.45219 13.6921C6.08573 13.2348 7.97978 13.2501 9 13.2501V11.7501ZM9 13.2501C10.0202 13.2501 11.9143 13.2348 13.5478 13.6921C14.3607 13.9196 15.043 14.2475 15.5136 14.6963C15.9619 15.1238 16.25 15.689 16.25 16.5001H17.75C17.75 15.2708 17.2881 14.3158 16.5489 13.6108C15.832 12.9271 14.8893 12.5099 13.9522 12.2476C12.0857 11.7251 9.97978 11.7501 9 11.7501V13.2501ZM0.25 16.5001C0.25 18.295 1.70507 19.7501 3.5 19.7501V18.2501C2.5335 18.2501 1.75 17.4666 1.75 16.5001H0.25ZM16.25 16.5001C16.25 17.4666 15.4665 18.2501 14.5 18.2501V19.7501C16.2949 19.7501 17.75 18.295 17.75 16.5001H16.25ZM12.25 5C12.25 6.79493 10.7949 8.25 9 8.25V9.75C11.6234 9.75 13.75 7.62335 13.75 5H12.25ZM9 8.25C7.20507 8.25 5.75 6.79493 5.75 5H4.25C4.25 7.62335 6.37665 9.75 9 9.75V8.25ZM5.75 5C5.75 3.20507 7.20507 1.75 9 1.75V0.25C6.37665 0.25 4.25 2.37665 4.25 5H5.75ZM9 1.75C10.7949 1.75 12.25 3.20507 12.25 5H13.75C13.75 2.37665 11.6234 0.25 9 0.25V1.75Z" fill="#039EA2" fill-opacity="0.2"/>
</svg>
