<svg width="20" height="20" viewBox="0 0 20 20" fill="none" xmlns="http://www.w3.org/2000/svg">
<path d="M10 18.25C5.44365 18.25 1.75 14.5563 1.75 10H0.25C0.25 15.3848 4.61522 19.75 10 19.75V18.25ZM1.75 10C1.75 5.44365 5.44365 1.75 10 1.75V0.25C4.61522 0.25 0.25 4.61522 0.25 10H1.75ZM10 1.75C14.5563 1.75 18.25 5.44365 18.25 10H19.75C19.75 4.61522 15.3848 0.25 10 0.25V1.75ZM18.25 10C18.25 12.2784 17.3274 14.3399 15.8336 15.8336L16.8943 16.8943C18.6579 15.1307 19.75 12.6922 19.75 10H18.25ZM15.8336 15.8336C14.3399 17.3274 12.2784 18.25 10 18.25V19.75C12.6922 19.75 15.1307 18.6579 16.8943 16.8943L15.8336 15.8336ZM9.25 1V10H10.75V1H9.25ZM10 9.25H1V10.75H10V9.25ZM9.46967 10.5303L15.8336 16.8943L16.8943 15.8336L10.5303 9.46967L9.46967 10.5303Z" fill="#039EA2"/>
</svg>
