<svg width="20" height="20" viewBox="0 0 20 20" fill="none" xmlns="http://www.w3.org/2000/svg">
<path d="M1 19H0.25C0.25 19.4142 0.585786 19.75 1 19.75L1 19ZM19 19V19.75C19.4142 19.75 19.75 19.4142 19.75 19H19ZM5.25 13.5V16.5H6.75V13.5H5.25ZM1 11.75C2.02124 11.75 3.15208 11.7688 4.02214 12.0462C4.44661 12.1816 4.74831 12.361 4.94114 12.5764C5.11973 12.776 5.25 13.0554 5.25 13.5H6.75C6.75 12.7201 6.50527 12.0749 6.05886 11.5761C5.62669 11.0932 5.05339 10.8006 4.47786 10.6171C3.34792 10.2568 1.97876 10.25 1 10.25V11.75ZM5.25 16.5C5.25 16.9154 5.12449 17.1844 4.94407 17.3837C4.74861 17.5995 4.44248 17.7825 4.01513 17.9235C3.144 18.2107 2.00776 18.25 1 18.25V19.75C1.99224 19.75 3.356 19.7203 4.48487 19.348C5.05752 19.1592 5.62639 18.8649 6.05593 18.3905C6.50051 17.8996 6.75 17.2656 6.75 16.5H5.25ZM14.75 16.5V13.5H13.25V16.5H14.75ZM14.75 13.5C14.75 13.0846 14.8755 12.8156 15.0559 12.6163C15.2514 12.4005 15.5575 12.2175 15.9849 12.0765C16.856 11.7893 17.9922 11.75 19 11.75V10.25C18.0078 10.25 16.644 10.2797 15.5151 10.652C14.9425 10.8408 14.3736 11.1351 13.9441 11.6095C13.4995 12.1004 13.25 12.7344 13.25 13.5H14.75ZM19 18.25C17.9922 18.25 16.856 18.2107 15.9849 17.9235C15.5575 17.7825 15.2514 17.5995 15.0559 17.3837C14.8755 17.1844 14.75 16.9154 14.75 16.5H13.25C13.25 17.2656 13.4995 17.8996 13.9441 18.3905C14.3736 18.8649 14.9425 19.1592 15.5151 19.348C16.644 19.7203 18.0078 19.75 19 19.75V18.25ZM1.75 10C1.75 5.44365 5.44365 1.75 10 1.75V0.25C4.61522 0.25 0.25 4.61522 0.25 10H1.75ZM10 1.75C14.5563 1.75 18.25 5.44365 18.25 10H19.75C19.75 4.61522 15.3848 0.25 10 0.25V1.75ZM0.25 10V11H1.75V10H0.25ZM0.25 11V19H1.75V11H0.25ZM18.25 10V11H19.75V10H18.25ZM18.25 11V19H19.75V11H18.25Z" fill="#039EA2" fill-opacity="0.2"/>
</svg>
