<svg width="20" height="19" viewBox="0 0 20 19" fill="none" xmlns="http://www.w3.org/2000/svg">
<path d="M12.1214 11.8787L12.6517 11.3484L12.6517 11.3484L12.1214 11.8787ZM1.50009 13H0.75009H1.50009ZM1.72757 16.4632L2.47079 16.3625L1.72757 16.4632ZM18.2726 16.4632L17.5294 16.3625L18.2726 16.4632ZM8.69761 1.74091L9.09015 2.37998L8.69761 1.74091ZM11.3026 1.74091L11.6951 1.10184L11.3026 1.74091ZM16.4385 17.25H15.0001V18.75H16.4385V17.25ZM13.7501 16V14H12.2501V16H13.7501ZM13.7501 14C13.7501 13.0055 13.355 12.0516 12.6517 11.3484L11.5911 12.409C12.013 12.831 12.2501 13.4033 12.2501 14H13.7501ZM12.6517 11.3484C11.9485 10.6451 10.9946 10.25 10.0001 10.25V11.75C10.5968 11.75 11.1691 11.9871 11.5911 12.409L12.6517 11.3484ZM10.0001 10.25C9.00553 10.25 8.0517 10.6451 7.34844 11.3484L8.4091 12.409C8.83105 11.9871 9.40335 11.75 10.0001 11.75V10.25ZM7.34844 11.3484C6.64517 12.0516 6.25009 13.0055 6.25009 14H7.75009C7.75009 13.4033 7.98714 12.831 8.4091 12.409L7.34844 11.3484ZM6.25009 14V16H7.75009V14H6.25009ZM5.00009 17.25H3.56164V18.75H5.00009V17.25ZM8.30507 1.10184C7.17364 1.79681 5.48791 2.95155 3.96975 4.4697L5.03041 5.53036C6.43496 4.12581 8.01362 3.04123 9.09015 2.37998L8.30507 1.10184ZM16.0304 4.4697C14.5123 2.95155 12.8265 1.79681 11.6951 1.10184L10.91 2.37998C11.9866 3.04123 13.5652 4.12581 14.9698 5.53036L16.0304 4.4697ZM2.47079 16.3625C2.35752 15.5262 2.25009 14.3712 2.25009 13H0.75009C0.75009 14.4485 0.863504 15.6715 0.984355 16.5638L2.47079 16.3625ZM17.7501 13C17.7501 14.3712 17.6427 15.5262 17.5294 16.3625L19.0158 16.5638C19.1367 15.6715 19.2501 14.4485 19.2501 13H17.7501ZM3.96975 4.4697C2.32848 6.11097 1.4912 7.4669 1.09123 8.85561C0.700968 10.2107 0.75009 11.546 0.75009 13H2.25009C2.25009 11.4541 2.21501 10.3736 2.53264 9.27075C2.84058 8.20156 3.50329 7.05748 5.03041 5.53036L3.96975 4.4697ZM19.2501 13C19.2501 11.546 19.2992 10.2106 18.9089 8.8556C18.509 7.46689 17.6717 6.11096 16.0304 4.4697L14.9698 5.53036C16.4969 7.05747 17.1596 8.20155 17.4675 9.27074C17.7852 10.3736 17.7501 11.4541 17.7501 13H19.2501ZM3.56164 17.25C2.98005 17.25 2.5385 16.8625 2.47079 16.3625L0.984355 16.5638C1.16297 17.8827 2.30776 18.75 3.56164 18.75V17.25ZM6.25009 16C6.25009 16.6904 5.69044 17.25 5.00009 17.25V18.75C6.51887 18.75 7.75009 17.5188 7.75009 16H6.25009ZM15.0001 17.25C14.3097 17.25 13.7501 16.6904 13.7501 16H12.2501C12.2501 17.5188 13.4813 18.75 15.0001 18.75V17.25ZM16.4385 18.75C17.6924 18.75 18.8372 17.8827 19.0158 16.5638L17.5294 16.3625C17.4617 16.8625 17.0201 17.25 16.4385 17.25V18.75ZM9.09015 2.37998C9.65396 2.03366 10.3462 2.03366 10.91 2.37998L11.6951 1.10184C10.6497 0.459707 9.35047 0.459707 8.30507 1.10184L9.09015 2.37998Z" fill="#039EA2" fill-opacity="0.2"/>
</svg>
