<svg width="18" height="20" viewBox="0 0 18 20" fill="none" xmlns="http://www.w3.org/2000/svg">
<path d="M10.4465 1.38559L10.6594 0.666434L10.4465 1.38559ZM9.45916 3.00063L10.1266 2.65861L9.45916 3.00063ZM1.67193 16.7967L2.14303 16.2131L1.67193 16.7967ZM2.4525 15.1452L2.51826 15.8923L2.4525 15.1452ZM17.75 10C17.75 5.58922 14.7553 1.8788 10.6594 0.666434L10.2336 2.10475C13.7322 3.1403 16.25 6.29423 16.25 10H17.75ZM7.99996 19.75C13.541 19.75 17.75 15.3776 17.75 10H16.25C16.25 14.5653 12.6966 18.25 7.99996 18.25V19.75ZM1.20083 17.3803C3.04419 18.8683 5.4896 19.75 7.99996 19.75V18.25C5.82956 18.25 3.71733 17.484 2.14303 16.2131L1.20083 17.3803ZM2.51826 15.8923C8.80216 15.3393 12.9859 8.23861 10.1266 2.65861L8.79168 3.34265C11.1333 7.91235 7.68153 13.9321 2.38675 14.3981L2.51826 15.8923ZM10.6594 0.666434C9.83171 0.421449 9.15124 0.847267 8.82263 1.42685C8.51176 1.97515 8.46766 2.7103 8.79168 3.34265L10.1266 2.65861C10.04 2.48959 10.0579 2.28944 10.1275 2.16667C10.1589 2.11121 10.1857 2.09784 10.1866 2.09743C10.1868 2.09737 10.1864 2.09727 10.1886 2.09713C10.1909 2.09697 10.205 2.09627 10.2336 2.10475L10.6594 0.666434ZM2.14303 16.2131C2.10076 16.179 2.11002 16.1693 2.11309 16.1875C2.11457 16.1964 2.10833 16.178 2.13218 16.1315C2.18587 16.0269 2.3293 15.909 2.51826 15.8923L2.38675 14.3981C1.68146 14.4602 1.08535 14.8861 0.797686 15.4466C0.650865 15.7326 0.573489 16.0771 0.633829 16.4361C0.695751 16.8046 0.893843 17.1325 1.20083 17.3803L2.14303 16.2131Z" fill="#039EA2" fill-opacity="0.2"/>
</svg>
