<svg width="6" height="9" viewBox="0 0 6 9" fill="none" xmlns="http://www.w3.org/2000/svg">
<path d="M5.46556 4.71146C5.46132 4.48707 5.38512 4.30925 5.20307 4.13144L2.01505 1.01539C1.87957 0.884146 1.72292 0.816406 1.52817 0.816406C1.13866 0.816406 0.816895 1.13394 0.816895 1.51921C0.816895 1.71396 0.897336 1.89178 1.04552 2.03996L3.80593 4.70723L1.04552 7.38296C0.897336 7.52691 0.816895 7.70473 0.816895 7.90371C0.816895 8.28899 1.13866 8.60652 1.52817 8.60652C1.71868 8.60652 1.87957 8.54301 2.01505 8.40753L5.20307 5.29149C5.38512 5.11367 5.46556 4.93162 5.46556 4.71146Z" fill="#1E2B72"/>
</svg>
