<svg width="72" height="69" viewBox="0 0 72 69" fill="none" xmlns="http://www.w3.org/2000/svg">
<path d="M69.6944 34.2384C69.7046 41.4728 67.4115 48.5225 63.1474 54.3666C59.7036 59.1068 55.1011 62.8841 49.7802 65.337C44.4592 67.7899 38.5979 68.8363 32.7568 68.3763C26.9158 67.9163 21.2905 65.9651 16.4192 62.7094C11.5478 59.4538 7.5934 55.0026 4.93417 49.7817C2.27493 44.5609 0.999882 38.7449 1.231 32.8904C1.46212 27.0358 3.19167 21.3385 6.25419 16.3435C9.31671 11.3485 13.6097 7.22288 18.7226 4.36138C23.8354 1.49988 29.597 -0.00177858 35.4561 6.27265e-05C36.3954 6.27265e-05 37.325 0.0375971 38.2451 0.11267C42.9429 0.494351 47.511 1.84288 51.663 4.07364C55.8149 6.3044 59.4609 9.36922 62.3722 13.0758C63.1382 14.0487 63.8515 15.0619 64.5092 16.111C67.9076 21.5458 69.7048 27.8286 69.6944 34.2384Z" fill="#FFC727"/>
<g opacity="0.1">
<path d="M42.849 50.3991C42.4169 51.5514 43.1371 51.5985 43.1843 52.0778C43.2314 52.557 43.1843 53.4684 41.7937 54.8589C40.4031 56.2495 38.1011 55.9615 37.6219 56.5376C37.1427 57.1137 36.3282 59.5597 35.1759 60.3742C34.0237 61.1886 33.8351 60.7094 32.2036 61.0446C30.5721 61.3798 29.3229 63.4906 28.8463 64.4988C28.3696 65.507 28.9432 67.1831 27.7987 67.2328C26.6543 67.2826 26.1227 64.7869 25.0673 63.4434C24.0119 62.1 23.6767 60.9005 23.3415 59.3188C23.0063 57.737 23.5327 54.4268 23.3415 53.1331C23.1503 51.8395 19.6961 49.5375 18.4496 47.9531C17.203 46.3688 15.4746 43.2078 15.5689 42.1525C15.7153 41.1291 16.2258 40.1928 17.0066 39.5153C17.5827 39.0832 17.3444 38.8423 17.4387 38.4678C17.533 38.0933 18.0148 37.9886 18.1117 37.5093C18.2086 37.0301 17.8237 35.5897 17.3444 35.3514C16.8652 35.1131 16.5274 35.9249 16.2393 35.7809C15.9512 35.6369 15.0896 34.6312 14.7544 34.5343C14.4192 34.4374 14.5135 35.1576 14.0343 34.2463C13.555 33.3349 13.3141 31.0356 12.9317 30.6506C12.5494 30.2657 12.2613 31.3211 11.3604 30.6506C10.4596 29.9802 10.0641 28.6839 9.68179 28.4927C9.29944 28.3016 8.77044 28.5399 8.37238 27.7726C7.97432 27.0053 8.72068 25.6147 8.37238 25.7587C8.02408 25.9027 7.28034 27.0053 7.08916 25.9525C6.89799 24.8997 8.04765 21.3486 7.85647 19.429C7.6653 17.5094 8.33572 15.5008 9.68964 13.8667C9.68964 13.8667 9.88082 12.8191 10.072 12.1409C10.2632 11.4626 14.3878 8.78356 14.867 8.01625C15.0687 7.69675 15.1289 7.19394 15.2075 6.65184C21.0797 2.3247 28.1854 -0.00408537 35.4797 0.00791972C36.419 0.00791972 37.3487 0.0454541 38.2687 0.120527C38.3002 0.165047 38.3342 0.206949 38.3656 0.24885C38.782 0.772612 39.2299 1.11044 40.445 1.55826C41.6601 2.00607 41.9456 2.58221 41.6915 3.06146C41.4375 3.5407 41.0185 3.63759 40.5393 3.66902C40.06 3.70044 39.6122 3.4438 39.1015 3.76592C38.5909 4.08803 38.0776 5.81121 37.4072 5.90549C36.7367 5.99976 35.553 4.37086 35.2964 3.89162C35.0398 3.41238 35.8725 2.38842 35.4797 1.90918C35.0869 1.42993 34.4008 1.52683 33.314 1.42993C32.2271 1.33304 29.7026 1.75205 29.7969 2.16582C29.8912 2.57959 33.5051 2.10297 33.602 2.93313C33.6989 3.7633 30.9492 5.17222 30.4594 5.04389C29.9697 4.91557 29.3386 4.08541 28.6263 3.99637C27.914 3.90733 27.3457 4.47561 26.9057 4.54108C26.4658 4.60655 25.942 4.05922 25.269 4.18754C24.5959 4.31586 24.4388 4.892 24.0853 5.1146C23.7317 5.3372 22.9016 5.31887 22.802 5.84263C22.7025 6.3664 23.8496 6.64137 24.1455 6.96087C24.4414 7.28036 23.792 8.36717 24.08 8.59239C24.3681 8.8176 26.1594 7.24894 26.6072 6.86659C27.055 6.48424 27.4373 4.81868 28.3958 4.85272C29.3543 4.88677 29.6764 6.51305 29.9959 6.6728C30.3154 6.83254 31.0199 6.29045 32.0726 6.51305C33.1254 6.73565 33.8639 9.0402 34.0551 9.74204C34.2463 10.4439 34.6941 11.151 34.317 11.4364C33.9398 11.7219 32.2062 11.2452 31.9836 10.7974C31.761 10.3496 33.1333 9.67919 33.0311 9.51944C32.929 9.3597 32.1355 9.13448 31.7217 9.38589C31.3079 9.63729 31.1141 10.1584 30.6742 10.2868C30.2342 10.4151 29.0453 9.07163 28.7258 9.45397C28.4063 9.83632 29.0453 11.0541 29.3648 11.3421C29.6843 11.6302 30.8654 11.7873 30.9623 12.1094C31.0592 12.4316 30.1766 13.1308 29.0767 13.0679C27.9768 13.0051 27.0943 12.1723 26.6779 12.5232C26.2615 12.8741 26.4867 13.8038 26.1986 14.1233C25.9106 14.4428 24.3445 14.2176 23.5798 15.0504C22.8151 15.8832 22.4616 17.1271 21.6943 17.8316C20.927 18.536 20.576 17.6378 19.5521 18.6303C18.5281 19.6228 18.3501 21.8174 18.3291 22.5873C18.3082 23.3573 18.3291 23.9622 18.0672 23.8653C17.8053 23.7684 17.457 23.098 17.3628 22.6816C17.2685 22.2652 17.5854 21.5634 17.5854 21.3093C17.5854 21.0553 16.1162 19.738 15.252 19.6123C14.3878 19.4866 13.6205 20.1885 12.9841 20.6992C12.3477 21.2098 11.1928 21.1155 10.7765 21.5319C10.3601 21.9483 10.0406 25.6251 10.3601 26.4867C10.6796 27.3483 11.0959 27.3509 12.1199 26.9031C13.1439 26.4553 12.5677 25.5937 13.1674 25.7823C13.4404 25.8852 13.6754 26.069 13.841 26.309C14.0067 26.5491 14.0951 26.834 14.0945 27.1257C14.0945 27.6495 12.8794 28.8515 13.047 29.2051C13.2146 29.5586 14.2621 29.1396 14.7728 29.2993C15.2834 29.4591 15.5401 29.7786 15.3803 31.0906C15.2206 32.4026 15.3175 33.424 16.0848 33.8561C16.8521 34.2882 17.2816 33.2328 17.6194 33.3768C17.9572 33.5209 18.4339 34.2882 18.9131 34.2384C19.3923 34.1887 19.1514 33.7592 20.0628 33.4711C20.9741 33.183 20.6389 32.9919 20.8301 32.4236C21.0212 31.8553 21.5974 31.3761 22.2207 31.6563C22.8439 31.9365 22.4145 32.3738 22.4616 32.8531C22.5087 33.3323 23.6113 33.3768 24.4755 33.6701C25.3397 33.9634 25.8189 33.6701 27.5447 34.2437C29.2705 34.8172 29.3779 36.5456 30.085 36.8337C30.792 37.1217 33.204 36.6425 34.9298 37.8812C36.6556 39.1199 36.1763 41.4297 37.0405 42.1001C37.9047 42.7705 41.1154 43.6845 42.3619 43.9333C43.6085 44.182 43.7997 43.31 44.8079 43.5509C45.8162 43.7918 46.3792 44.0747 46.7249 45.4679C47.0287 46.6961 43.2811 49.2495 42.849 50.3991Z" fill="black"/>
<path d="M17.0825 25.8791C17.114 26.141 17.9127 26.2641 18.8738 26.8062C19.8349 27.3483 20.1832 28.9483 20.6939 28.9169C21.2046 28.8855 21.0474 28.1496 21.2386 27.9584C21.4298 27.7673 21.7493 27.3509 21.2386 26.9345C20.7279 26.5181 20.2304 25.6251 19.2954 25.4968C18.3605 25.3684 18.2008 24.973 17.787 25.0175C17.6807 25.0182 17.5759 25.0424 17.4801 25.0882C17.3842 25.1341 17.2996 25.2005 17.2323 25.2828C17.1651 25.3651 17.1168 25.4611 17.0909 25.5642C17.065 25.6673 17.0621 25.7748 17.0825 25.8791Z" fill="black"/>
<path d="M22.3569 28.566C22.2155 28.9562 22.3569 29.2364 23.3809 29.4931C24.4048 29.7497 25.3633 29.2312 25.0438 29.0295C24.7243 28.8279 24.2425 28.9169 24.4363 28.566C24.6301 28.2151 24.562 27.7018 23.7318 27.7987C22.9017 27.8956 22.4853 28.2125 22.3569 28.566Z" fill="black"/>
<path d="M25.9444 28.6734C25.5961 28.7232 25.4023 29.3334 25.7532 29.7209C26.1041 30.1085 26.1067 30.0404 26.5205 29.7209C26.9343 29.4014 27.568 29.2417 27.4161 28.9222C27.2643 28.6027 26.2901 28.6263 25.9444 28.6734Z" fill="black"/>
<path d="M28.7205 29.9802C28.875 29.501 29.679 29.9802 30.0299 30.483C30.3808 30.9858 30.2211 31.7296 30.0299 32.2743C29.8387 32.819 29.7104 33.4554 29.2626 33.2013C28.8148 32.9473 29.294 32.1774 29.2312 31.7296C29.1683 31.2818 28.5922 30.373 28.7205 29.9802Z" fill="black"/>
<path d="M42.4982 3.31024C42.3306 3.71092 43.1058 3.85234 43.5457 4.09589C43.9857 4.33944 44.3445 4.50966 44.5932 4.09589C44.842 3.68211 44.4963 3.20025 44.1454 3.10335C43.7945 3.00646 42.6579 2.92528 42.4982 3.31024Z" fill="black"/>
<path d="M48.5395 7.0499C48.8355 7.36154 49.3383 7.31178 49.6918 7.75174C50.0454 8.1917 49.9144 8.96687 50.3622 9.19209C50.8101 9.41731 51.1296 9.19209 51.161 8.8726C51.1924 8.5531 50.522 7.75174 50.5848 7.59199C50.6477 7.43225 51.5119 7.81721 51.7057 8.29645C51.8995 8.7757 51.5119 9.44611 51.9676 9.57444C52.4232 9.70276 52.3211 9.12662 52.5123 9.00092C52.7035 8.87521 53.1198 8.93545 53.0884 8.5531C53.057 8.17075 52.5437 7.33797 52.1273 7.0499C51.7109 6.76183 51.394 6.44233 50.6896 6.28259C49.9851 6.12284 49.3147 6.25116 48.9638 6.54447C48.6129 6.83777 48.3588 6.85873 48.5395 7.0499Z" fill="black"/>
<path d="M62.3723 13.0758C62.3518 13.2048 62.2881 13.323 62.1916 13.411C61.5212 13.8902 60.7198 12.2273 59.7927 11.9104C58.8657 11.5936 58.4519 10.4072 58.2581 10.6613C58.0643 10.9153 58.1298 11.2688 57.8417 11.6852C57.5537 12.1016 57.1399 12.0047 56.9487 12.8034C56.7575 13.6022 57.8417 15.074 57.5877 15.5532C57.3337 16.0324 57.0116 15.8727 56.5009 15.8413C55.9902 15.8098 56.0845 16.2577 55.4141 16.0639C54.7437 15.8701 55.3172 15.0425 54.2618 14.05C53.2064 13.0575 52.8555 12.8689 53.0807 12.4211C53.3059 11.9733 52.9838 11.3343 53.4631 11.2688C53.9423 11.2033 54.3273 11.9104 54.6468 12.1016C54.9663 12.2928 55.3827 11.7166 55.4141 11.206C55.4455 10.6953 54.2932 9.99084 53.8795 9.59278C53.4657 9.19472 53.4317 7.75961 53.5914 7.46368C53.7511 7.16776 54.2304 7.27251 54.3587 6.57067C54.4347 6.1569 53.7799 5.46553 53.2274 4.96796C56.7357 7.10231 59.833 9.84836 62.3723 13.0758Z" fill="black"/>
<path d="M67.1463 41.736C67.2406 40.7121 66.73 40.6492 67.2406 38.7637C67.7513 36.8781 66.6985 34.8617 66.3162 34.4479C65.9338 34.0341 65.1011 34.1598 64.428 34.5762C63.755 34.9926 64.2368 35.3095 63.789 35.4692C63.3412 35.629 62.8934 35.375 62.4796 35.4064C62.0658 35.4378 61.6783 36.4932 60.7852 36.4539C59.8922 36.4146 59.3135 35.1445 58.6431 34.2305C57.9726 33.3166 56.5951 32.7457 56.1499 31.6248C55.7047 30.504 56.5637 28.7808 56.3725 27.4688C56.1814 26.1567 55.325 26.4474 55.1574 25.7115C54.9898 24.9756 55.2857 25.3292 55.5083 24.6247C55.7309 23.9203 55.2465 23.5379 55.7021 22.3228C56.1578 21.1077 56.9487 20.4896 56.7497 19.9659C56.5506 19.4421 55.9483 18.5255 55.9169 17.8891C55.8855 17.2528 56.5244 17.279 57.75 16.3833C58.9757 15.4877 59.2847 15.5532 60.2117 15.8727C60.8772 16.1185 61.5611 16.3112 62.257 16.4488C62.8017 16.5431 63.5376 17.952 63.7602 17.8865C63.9828 17.8211 64.0221 17.4073 64.1111 16.7997C64.1738 16.5356 64.3132 16.296 64.5118 16.111C68.1189 21.8983 69.9169 28.6304 69.6757 35.4455C69.4345 42.2606 67.1651 48.8487 63.1579 54.3666C66.4183 49.3908 67.0599 42.7679 67.1463 41.736Z" fill="black"/>
</g>
<path opacity="0.1" d="M61.9821 55.8908C58.3293 60.3667 53.6033 63.8455 48.2442 66.0035C42.8852 68.1615 37.0672 68.9285 31.3319 68.233C25.5967 67.5375 20.1306 65.4021 15.4427 62.0257C10.7548 58.6493 6.99736 54.1416 4.52027 48.9224C2.04318 43.7031 0.926958 37.9419 1.27552 32.1752C1.62408 26.4084 3.42609 20.8236 6.51379 15.9407C9.60149 11.0578 13.8745 7.03551 18.935 4.24833C23.9954 1.46116 29.6789 -0.000281214 35.4561 6.10953e-05C36.3963 6.10953e-05 37.326 0.0393414 38.2478 0.112668C38.5009 0.130127 38.755 0.153697 39.0099 0.183377C34.1712 0.710652 29.5215 2.35653 25.4286 4.99085C21.3357 7.62516 17.9119 11.1756 15.428 15.3615C12.9441 19.5473 11.4681 24.2537 11.1169 29.1084C10.7657 33.963 11.5489 38.8328 13.4045 43.3326C15.26 47.8324 18.1372 51.8387 21.8082 55.0347C25.4793 58.2307 29.8437 60.5287 34.5561 61.7469C39.2685 62.9652 44.1998 63.0702 48.9599 62.0539C53.7199 61.0375 58.1782 58.9275 61.9821 55.8908Z" fill="black"/>
<path opacity="0.3" d="M69.6946 34.2384C69.7047 41.4727 67.4117 48.5225 63.1476 54.3666C59.9326 58.7794 55.7135 62.3638 50.8391 64.8235C55.0821 62.3969 58.7629 59.099 61.6391 55.147C65.2341 50.2035 67.4484 44.392 68.0544 38.3097C68.6604 32.2273 67.6363 26.0933 65.0874 20.5376C62.5385 14.9819 58.5565 10.2049 53.5507 6.69731C48.5448 3.18969 42.6953 1.07786 36.6033 0.578776C35.6788 0.502831 34.7413 0.463552 33.7985 0.463552C31.0115 0.4611 28.2344 0.797018 25.5283 1.46394C28.7474 0.48958 32.0929 -0.00371941 35.4562 2.11132e-05C36.3964 2.11132e-05 37.3261 0.0393014 38.2479 0.112628C43.5521 0.537411 48.6827 2.20037 53.2275 4.96791C56.7362 7.10611 59.8334 9.85566 62.3724 13.0862C63.1398 14.0583 63.8524 15.0725 64.5067 16.124C67.9058 21.5538 69.704 27.8324 69.6946 34.2384Z" fill="white"/>
<g opacity="0.5">
<path d="M6.00234 22.1709C5.95474 22.0837 5.89032 22.0068 5.81282 21.9447C5.73531 21.8825 5.64625 21.8363 5.55078 21.8088C5.45532 21.7813 5.35535 21.773 5.25665 21.7844C5.15795 21.7957 5.06247 21.8265 4.97576 21.875C4.38391 22.1369 4.12203 22.7837 4.04609 23.407C3.94623 23.6729 3.94623 23.966 4.04609 24.232C4.08783 24.3072 4.14465 24.3731 4.21301 24.4254C4.28136 24.4777 4.35977 24.5154 4.44333 24.536C4.5269 24.5567 4.61382 24.5599 4.69867 24.5454C4.78353 24.5309 4.86448 24.4991 4.93648 24.4519C5.30311 24.232 5.54928 23.7449 5.72212 23.3756C5.89497 23.0064 6.18304 22.5533 6.00234 22.1709Z" fill="white"/>
<path d="M7.03412 19.5102C6.96869 19.4078 6.87176 19.3294 6.75792 19.2869C6.64408 19.2444 6.51951 19.2401 6.40298 19.2745C6.29347 19.3115 6.19586 19.3772 6.12033 19.4647C6.0448 19.5522 5.9941 19.6583 5.9735 19.7721C5.97091 19.7973 5.97091 19.8228 5.9735 19.848C5.90781 19.9282 5.86042 20.0218 5.83463 20.1222C5.80885 20.2227 5.8053 20.3275 5.82423 20.4294C5.84901 20.532 5.90203 20.6257 5.97727 20.6997C6.05251 20.7738 6.14697 20.8253 6.24997 20.8485C6.35298 20.8716 6.46041 20.8655 6.56011 20.8308C6.65981 20.7961 6.7478 20.7341 6.81414 20.652C7.05769 20.3823 7.23053 19.848 7.03412 19.5102Z" fill="white"/>
<path d="M7.35118 21.3224C7.28075 21.3213 7.21082 21.3344 7.14557 21.361C7.08032 21.3875 7.0211 21.4269 6.97145 21.4769C6.9307 21.5137 6.89872 21.5591 6.87787 21.6099C6.85702 21.6606 6.84783 21.7154 6.85099 21.7702C6.81238 21.8331 6.78491 21.9022 6.7698 21.9745C6.75147 22.0519 6.75776 22.1332 6.78781 22.2069C6.81785 22.2806 6.87015 22.3431 6.93741 22.3856C6.98846 22.4196 7.0457 22.4431 7.10586 22.4549C7.16602 22.4667 7.22791 22.4665 7.28799 22.4543C7.34807 22.4422 7.40517 22.4183 7.45601 22.384C7.50684 22.3498 7.55042 22.3058 7.58425 22.2547C7.70042 22.1045 7.76474 21.9208 7.76757 21.7309C7.76357 21.6225 7.71818 21.5197 7.64073 21.4437C7.56328 21.3678 7.45966 21.3243 7.35118 21.3224Z" fill="white"/>
<path d="M8.62642 17.4492C8.51381 17.5356 8.36454 17.6116 8.31216 17.7451C8.28632 17.8021 8.27123 17.8634 8.26764 17.9258C8.21666 18.0221 8.18802 18.1286 8.18384 18.2375C8.1845 18.2915 8.19744 18.3446 8.22165 18.3928C8.24587 18.4411 8.28074 18.4832 8.32362 18.516C8.36651 18.5488 8.41629 18.5714 8.4692 18.5821C8.52211 18.5929 8.57677 18.5914 8.62904 18.5779C8.79785 18.524 8.94456 18.4167 9.04706 18.2722C9.14957 18.1276 9.20231 17.9537 9.19732 17.7766C9.18423 17.5173 8.86735 17.2711 8.62642 17.4492Z" fill="white"/>
<path d="M16.0064 9.26017C15.8448 9.2544 15.6836 9.28108 15.5325 9.33866C15.3813 9.39624 15.2433 9.48353 15.1265 9.59538C15.0596 9.65234 14.9982 9.71547 14.9432 9.78393C14.8825 9.82805 14.8264 9.87805 14.7755 9.9332C14.566 10.1689 14.4639 10.5748 14.7153 10.8236C14.9667 11.0724 15.3491 10.8681 15.6057 10.6927C15.8965 10.5186 16.1374 10.2723 16.3049 9.97772C16.4594 9.67394 16.3861 9.31778 16.0064 9.26017Z" fill="white"/>
<path d="M19.2586 7.41389C18.7724 7.45678 18.3058 7.62556 17.9047 7.90361L17.7083 8.04765H17.69C17.4281 8.23358 16.9829 8.54522 17.0405 8.93019C17.0592 9.00299 17.0927 9.07115 17.1391 9.13035C17.1854 9.18956 17.2435 9.23854 17.3096 9.2742C17.3758 9.30987 17.4486 9.33146 17.5236 9.3376C17.5985 9.34375 17.6739 9.33432 17.7449 9.30992C18.2738 9.17048 18.7819 8.96178 19.256 8.68926C19.5546 8.52165 19.9343 8.24406 19.9264 7.86433C19.9186 7.4846 19.5834 7.38509 19.2586 7.41389Z" fill="white"/>
<path d="M17.7058 9.93847C17.5829 9.90141 17.4522 9.89839 17.3277 9.92975C17.2032 9.96112 17.0895 10.0257 16.9988 10.1165C16.9403 10.1468 16.8889 10.189 16.8478 10.2404C16.8068 10.2919 16.777 10.3514 16.7604 10.4151C16.7436 10.5094 16.7607 10.6065 16.8086 10.6894C16.8566 10.7724 16.9323 10.8357 17.0223 10.8681C17.1098 10.8983 17.2033 10.9064 17.2947 10.8918C17.3861 10.8772 17.4724 10.8403 17.5461 10.7843C17.6901 10.6901 17.8918 10.5801 17.9415 10.4046C17.9662 10.3115 17.9558 10.2126 17.9124 10.1267C17.8689 10.0408 17.7954 9.97377 17.7058 9.93847Z" fill="white"/>
<path d="M14.5816 11.9732C14.4647 11.9192 14.3346 11.9001 14.2071 11.9182C14.1198 11.9191 14.0342 11.9417 13.9579 11.9841C13.8816 12.0265 13.8171 12.0873 13.7703 12.1609C13.7235 12.2345 13.6958 12.3187 13.6897 12.4057C13.6837 12.4928 13.6995 12.58 13.7357 12.6594C13.7863 12.7524 13.8669 12.8256 13.9644 12.8669C14.0619 12.9083 14.1705 12.9154 14.2726 12.8872C14.4665 12.8103 14.6239 12.6623 14.7125 12.4734C14.7612 12.3897 14.7748 12.29 14.7503 12.1963C14.7257 12.1026 14.6651 12.0224 14.5816 11.9732Z" fill="white"/>
<path d="M14.7703 58.321C14.6626 58.2581 14.5346 58.2398 14.4137 58.2702C14.2928 58.3006 14.1886 58.3771 14.1234 58.4834C14.0713 58.5826 14.0546 58.6966 14.076 58.8066C14.0974 58.9165 14.1557 59.0159 14.2413 59.0883C14.2698 59.133 14.3022 59.1751 14.3382 59.214C14.4553 59.3593 14.6244 59.4532 14.8096 59.4759C14.9176 59.4831 15.025 59.4537 15.1144 59.3924C15.2037 59.3311 15.2697 59.2415 15.3019 59.1381C15.4093 58.761 15.0767 58.4807 14.7703 58.321Z" fill="white"/>
<path d="M17.3025 58.8081C16.9882 58.465 16.2733 58.1088 15.9538 58.6195V58.6378C15.9357 58.6607 15.9199 58.6852 15.9067 58.7112C15.884 58.7685 15.875 58.8304 15.8805 58.8919C15.8773 59.0897 15.9473 59.2818 16.0769 59.4313C16.1757 59.5562 16.3071 59.6514 16.4566 59.7063C16.5335 59.7731 16.6223 59.8247 16.7185 59.8582C16.8491 59.909 16.9938 59.9104 17.1254 59.8622C17.257 59.814 17.3665 59.7195 17.4334 59.5963C17.4983 59.4681 17.5205 59.3225 17.497 59.1808C17.4734 59.039 17.4053 58.9085 17.3025 58.8081Z" fill="white"/>
<path d="M16.7499 60.5391C16.7483 60.4672 16.7281 60.3969 16.6912 60.3351C16.6544 60.2733 16.6022 60.2221 16.5397 60.1865C16.4772 60.1509 16.4065 60.1321 16.3346 60.132C16.2626 60.1318 16.1919 60.1503 16.1292 60.1856C16.0917 60.2072 16.0589 60.2361 16.0326 60.2705C16.0064 60.305 15.9872 60.3443 15.9762 60.3862C15.9653 60.4281 15.9627 60.4717 15.9688 60.5146C15.9748 60.5575 15.9893 60.5987 16.0114 60.636C16.0507 60.6927 16.0945 60.7461 16.1423 60.7957C16.1951 60.8392 16.2588 60.8673 16.3265 60.877C16.3942 60.8866 16.4632 60.8774 16.526 60.8503C16.5888 60.8232 16.6429 60.7794 16.6824 60.7235C16.7219 60.6677 16.7453 60.6021 16.7499 60.5339V60.5391Z" fill="white"/>
<path d="M18.1485 60.8377C18.1364 60.7927 18.1126 60.7518 18.0794 60.7191C18.0463 60.6865 18.005 60.6632 17.9599 60.6518H17.9442H17.9651C17.9169 60.6315 17.8636 60.6261 17.8123 60.6364C17.7609 60.6466 17.7138 60.6721 17.6771 60.7094C17.6398 60.749 17.6147 60.7985 17.6048 60.852C17.5949 60.9055 17.6007 60.9608 17.6214 61.0111C17.6422 61.0614 17.677 61.1047 17.7217 61.1357C17.7664 61.1667 17.8191 61.1842 17.8735 61.186C17.9162 61.186 17.9583 61.1763 17.9967 61.1576C18.0351 61.139 18.0688 61.1119 18.0953 61.0784C18.1218 61.0449 18.1403 61.0058 18.1495 60.9642C18.1587 60.9225 18.1583 60.8792 18.1485 60.8377Z" fill="white"/>
<path d="M66.6645 28.9013C66.6121 28.1601 66.4864 26.9607 65.7793 26.5443C65.7073 26.5083 65.6263 26.494 65.5463 26.5033C65.4663 26.5126 65.3907 26.5451 65.3289 26.5967C64.7816 26.9162 64.9675 27.8904 65.0172 28.3487C65.0801 28.9563 65.0513 30.0169 65.8291 30.1819C66.6069 30.3468 66.7011 29.4303 66.6645 28.9013Z" fill="white"/>
<path d="M65.6901 24.85C65.6918 24.7427 65.6716 24.6363 65.6306 24.5372C65.5896 24.4382 65.5287 24.3485 65.4518 24.2738C65.3644 24.1993 65.2522 24.1602 65.1374 24.1641C65.0226 24.168 64.9134 24.2146 64.8312 24.2948C64.5326 24.5855 64.6059 25.138 64.8312 25.4523C64.8604 25.4997 64.8992 25.5404 64.9451 25.5719C64.991 25.6035 65.0429 25.6251 65.0976 25.6355C65.1523 25.6458 65.2086 25.6447 65.2628 25.6321C65.317 25.6195 65.368 25.5957 65.4125 25.5623C65.4368 25.5441 65.4588 25.523 65.478 25.4994C65.5039 25.4813 65.5277 25.4602 65.5487 25.4366C65.6705 25.2669 65.7212 25.0565 65.6901 24.85Z" fill="white"/>
<path d="M66.3188 30.9308C65.9443 30.8418 65.7296 31.1011 65.6431 31.4337C65.5301 31.8418 65.5383 32.274 65.6667 32.6776C65.7662 32.963 65.9469 33.2563 66.29 33.2485C66.4424 33.2337 66.5851 33.1667 66.6939 33.0589C66.8027 32.951 66.8709 32.809 66.8871 32.6566C66.9918 32.1381 66.9866 31.0906 66.3188 30.9308Z" fill="white"/>
<path d="M65.1377 30.3652C65.0901 30.3209 65.0331 30.288 64.9709 30.2689C64.9088 30.2499 64.8431 30.2452 64.7789 30.2552C64.7526 30.2497 64.7254 30.2499 64.6992 30.2558C64.6731 30.2617 64.6484 30.2731 64.627 30.2892C64.0849 30.4254 64.1949 31.4363 64.6951 31.5986C65.3733 31.8265 65.5279 30.7213 65.1377 30.3652Z" fill="white"/>
<path d="M64.703 46.7589C64.394 46.8297 64.2343 47.1308 64.1112 47.3953C64.0496 47.5216 63.9945 47.651 63.9462 47.7829C63.8074 48.0684 63.7498 48.3643 63.9462 48.5947C64.0402 48.7008 64.1659 48.7736 64.3046 48.8024C64.4434 48.8312 64.5877 48.8144 64.7161 48.7545C64.8489 48.6797 64.9656 48.5794 65.0595 48.4594C65.1534 48.3395 65.2228 48.2021 65.2635 48.0553C65.418 47.6127 65.452 46.5887 64.703 46.7589Z" fill="white"/>
<path d="M63.6398 49.3699C63.5096 49.3768 63.3841 49.4214 63.2786 49.498C63.1732 49.5747 63.0921 49.6803 63.0453 49.802C63.0113 49.8648 62.9798 49.9277 62.951 49.9958C62.8968 50.0649 62.8578 50.1448 62.8365 50.2301C62.8153 50.3154 62.8124 50.4042 62.8279 50.4907C62.8304 50.5554 62.8489 50.6185 62.8818 50.6743C62.9147 50.7301 62.961 50.7768 63.0165 50.8102C63.12 50.898 63.2527 50.9438 63.3884 50.9385C63.5089 50.9247 63.6235 50.8787 63.7202 50.8055C63.817 50.7322 63.8923 50.6344 63.9383 50.5221C64.0416 50.3382 64.1058 50.1349 64.1269 49.9251C64.1355 49.7869 64.0891 49.651 63.9978 49.547C63.9066 49.443 63.7778 49.3793 63.6398 49.3699Z" fill="white"/>
<path d="M62.7809 48.0369C62.6087 48.2109 62.4976 48.436 62.464 48.6785C62.433 48.7682 62.4347 48.866 62.4687 48.9546C62.5027 49.0432 62.5669 49.117 62.6499 49.163C63.1737 49.4249 63.4356 48.6968 63.4356 48.3119C63.4312 48.238 63.4063 48.1669 63.3636 48.1065C63.3209 48.0461 63.2621 47.9989 63.1939 47.9703C63.1257 47.9417 63.0509 47.9327 62.9779 47.9445C62.9048 47.9563 62.8366 47.9883 62.7809 48.0369Z" fill="white"/>
<path d="M65.8605 45.3867C65.7736 45.3887 65.6901 45.4206 65.6238 45.4768C65.5576 45.533 65.5126 45.6103 65.4965 45.6957C65.4617 45.7366 65.4319 45.7814 65.4074 45.8292C65.3593 45.9204 65.3473 46.0264 65.3741 46.1259C65.4008 46.2255 65.4641 46.3113 65.5515 46.3661C65.6064 46.3964 65.6681 46.4122 65.7308 46.4122C65.7936 46.4122 65.8553 46.3964 65.9102 46.3661C66.0089 46.2978 66.0895 46.2067 66.1452 46.1004C66.2008 45.9941 66.2298 45.8759 66.2297 45.7559C66.2297 45.7074 66.2202 45.6594 66.2016 45.6146C66.1831 45.5698 66.1559 45.5291 66.1216 45.4948C66.0873 45.4605 66.0466 45.4333 66.0018 45.4148C65.957 45.3962 65.909 45.3867 65.8605 45.3867Z" fill="white"/>
</g>
<path opacity="0.7" d="M42.4011 26.2694C47.8442 25.7753 53.2158 24.6801 58.4178 23.0037C57.9329 22.6835 57.35 22.5461 56.7732 22.6161C56.7732 22.6161 55.0971 19.2326 52.2452 19.8637C49.5924 20.4346 48.5134 23.0063 48.5161 23.0273C48.5187 23.0482 47.2774 22.1552 46.0884 22.8204C44.8995 23.4856 44.2264 24.9861 44.2264 24.9861C44.2264 24.9861 42.8882 25.6854 42.4011 26.2694Z" fill="white"/>
<path d="M19.5311 31.3577C12.7048 29.8329 6.12899 27.3483 1.30182e-06 23.9779C1.30182e-06 23.9648 -0.0130936 23.0116 2.58739 24.1429C2.58739 24.1298 4.94432 21.0291 8.69708 23.0954C11.0331 24.3655 12.2508 27.3012 12.2508 27.3064C12.2508 27.3116 14.0395 25.887 15.4877 26.6805C16.9359 27.474 17.8001 29.8231 17.8001 29.8231C17.8001 29.8231 19.3033 30.7475 19.5311 31.3577Z" fill="white"/>
<path d="M71.368 27.982C65.2382 31.3533 58.6615 33.8388 51.8342 35.3645C51.8342 35.3514 51.8342 34.3981 54.6102 33.4946C54.6102 33.4946 57.1504 28.5189 60.9267 27.749C63.2837 27.254 64.4517 29.2862 64.4543 29.2941C64.4569 29.3019 66.201 26.5312 67.5838 26.2693C68.9665 26.0075 69.7626 27.7175 69.7652 27.7202C69.7679 27.7228 71.1585 27.5395 71.368 27.982Z" fill="white"/>
<path d="M38.253 17.8892C33.5781 18.0514 28.8984 17.7708 24.2764 17.0512C24.2764 17.0512 25.5858 16.3179 26.1698 16.3912C26.7538 16.4646 28.4586 13.5577 30.6479 13.8379C32.8373 14.1181 34 16.4567 34 16.4567C34 16.4567 36.666 15.857 38.253 17.8892Z" fill="white"/>
<path d="M31.5855 66.3608C26.9032 66.1022 22.2559 65.4007 17.7058 64.2657C17.7058 64.2657 18.9969 63.6503 19.5756 63.776C20.1544 63.9017 21.8357 61.1572 24.0067 61.626C26.1777 62.0947 27.3404 64.5381 27.3378 64.5433C27.3352 64.5485 29.9959 64.195 31.5855 66.3608Z" fill="white"/>
<path opacity="0.7" d="M17.5226 48.3303C13.5969 47.3379 9.75963 46.024 6.04956 44.402C6.40484 44.1978 6.82584 44.1405 7.22279 44.2423C7.22279 44.2423 8.41958 41.8854 10.4596 42.6029C12.3583 43.2655 13.1308 45.2767 13.1308 45.282C13.4013 45.1358 13.707 45.0675 14.014 45.0846C14.3209 45.1017 14.6172 45.2035 14.8697 45.3789C15.7235 45.9969 16.2079 47.1754 16.2079 47.1754C16.2079 47.1754 17.1717 47.8405 17.5226 48.3303Z" fill="white"/>
<path opacity="0.7" d="M45.2034 61.3615C50.6348 60.6589 55.9715 59.3554 61.1153 57.4752C60.6304 57.171 60.0508 57.0555 59.4864 57.1504C59.4864 57.1504 57.826 53.8324 54.9977 54.5761C52.3632 55.2492 51.2895 57.8706 51.2921 57.8811C51.2947 57.8915 50.0613 57.0561 48.8776 57.7658C47.6939 58.4755 47.0234 60.0049 47.0234 60.0049C47.0234 60.0049 45.6878 60.7565 45.2034 61.3615Z" fill="white"/>
</svg>
