<svg width="103" height="97" viewBox="0 0 103 97" fill="none" xmlns="http://www.w3.org/2000/svg">
<path d="M82.8221 24.4911C81.2358 21.7619 79.3187 19.2389 77.1143 16.9795C85.8091 32.6401 79.1811 50.9382 63.6268 59.9894C47.8764 69.1547 28.9048 65.3295 19.7396 49.5792C15.4297 42.1917 14.1666 33.4162 16.218 25.1131C12.9544 30.9731 11.2859 37.587 11.3793 44.2938C11.4727 51.0006 13.3247 57.5655 16.7502 63.3323C20.1756 69.0991 25.0547 73.8659 30.8996 77.1563C36.7446 80.4467 43.3507 82.1454 50.0579 82.0827C56.7651 82.0201 63.3383 80.1982 69.1208 76.7991C74.9032 73.4001 79.6923 68.543 83.0094 62.7131C86.3266 56.8833 88.0555 50.285 88.0236 43.5776C87.9916 36.8702 86.1999 30.2887 82.8273 24.4907L82.8221 24.4911Z" fill="#455A64"/>
<path d="M63.9841 65.8034C63.9267 66.0665 65.2686 66.4419 66.1781 67.6949C67.0877 68.9479 67.0843 70.3466 67.3459 70.3639C67.4685 70.3773 67.6576 70.0212 67.6782 69.3942C67.6888 68.5731 67.4304 67.7711 66.9425 67.1107C66.4627 66.4536 65.7769 65.9761 64.9942 65.7542C64.3957 65.5995 64.0019 65.6837 63.9841 65.8034Z" fill="#263238"/>
<path d="M69.247 62.484C68.9967 62.7772 69.8004 63.8485 70.4071 65.2996C71.0137 66.7507 71.2652 68.0614 71.6498 68.0835C71.8289 68.086 72.0189 67.7266 72.073 67.1102C72.1117 66.3069 71.9669 65.5054 71.6496 64.7665C71.3323 64.0275 70.8509 63.3705 70.2418 62.8454C69.7538 62.4624 69.3646 62.3526 69.247 62.484Z" fill="#263238"/>
<path d="M51.8362 66.3858C51.909 66.3653 51.7571 65.5407 51.4543 64.2217C51.3708 63.8903 51.3217 63.5663 51.5196 63.432C51.7175 63.2977 52.1165 63.2787 52.5361 63.2997C53.418 63.3168 54.3469 63.3394 55.312 63.3491C59.2548 63.3837 62.4528 63.2941 62.4473 63.125C62.4419 62.956 59.2504 62.7985 55.3104 62.7732L52.5342 62.7705C52.1264 62.7836 51.6401 62.7277 51.2222 63.0665C51.1263 63.1555 51.0521 63.2652 51.0052 63.3873C50.9582 63.5094 50.9398 63.6405 50.9514 63.7708C50.9691 63.9651 51.0114 64.1563 51.0775 64.3398C51.4822 65.6132 51.7651 66.3999 51.8362 66.3858Z" fill="#263238"/>
<g opacity="0.1">
<path d="M62.9886 74.2771C63.0388 73.7869 62.9592 73.2921 62.7579 72.8424C62.4757 72.1684 62.0447 71.567 61.4971 71.0833C60.9496 70.5995 60.2997 70.2459 59.5961 70.0489C59.0401 69.8968 58.373 69.8777 57.9635 70.2827C57.7992 70.4747 57.6915 70.7085 57.6523 70.9581C57.6132 71.2078 57.6442 71.4634 57.742 71.6964L58.1362 72.7545C58.5888 73.5971 59.1979 74.3458 59.931 74.9603C60.5382 75.4871 61.4862 75.8102 62.2046 75.4523C62.4194 75.333 62.6026 75.1641 62.739 74.9597C62.8754 74.7553 62.961 74.5213 62.9886 74.2771Z" fill="black"/>
</g>
<g opacity="0.1">
<path d="M55.2339 72.8169C55.3998 72.5447 55.4784 72.2282 55.4592 71.9101C55.44 71.5919 55.3239 71.2873 55.1265 71.037C54.9291 70.7868 54.6598 70.6029 54.3549 70.5101C54.0499 70.4173 53.7239 70.4201 53.4206 70.518C52.9354 70.7012 52.5339 71.0554 52.2917 71.5139C52.0758 71.8683 51.958 72.2737 51.9501 72.6885C51.9366 72.9474 51.9944 73.2051 52.1172 73.4334C52.24 73.6618 52.423 73.8521 52.6464 73.9837C52.8698 74.1152 53.125 74.183 53.3843 74.1796C53.6435 74.1762 53.8969 74.1018 54.1167 73.9645C54.6542 73.6648 55.051 73.1646 55.2206 72.5731" fill="black"/>
</g>
<path d="M63.1472 67.3811C62.8995 67.5039 62.7096 67.7184 62.6177 67.9792C62.5259 68.2399 62.5395 68.5261 62.6555 68.777C62.7066 68.9022 62.7822 69.0158 62.8779 69.1113C62.9736 69.2067 63.0875 69.282 63.2128 69.3327C63.3381 69.3834 63.4723 69.4084 63.6075 69.4063C63.7426 69.4042 63.876 69.3751 63.9997 69.3206C64.2477 69.1984 64.4382 68.9842 64.5306 68.7236C64.623 68.4631 64.6101 68.1767 64.4945 67.9255C64.4431 67.8003 64.3671 67.6866 64.2711 67.5912C64.1751 67.4957 64.061 67.4204 63.9354 67.3697C63.8099 67.319 63.6755 67.2939 63.5402 67.2958C63.4048 67.2978 63.2712 67.3268 63.1472 67.3811Z" fill="#263238"/>
<path d="M59.3919 63.9436C59.3918 63.9764 57.7709 63.9766 55.7495 63.9555C53.7282 63.9345 52.1095 63.8869 52.108 63.8468C52.1065 63.8066 53.7392 63.8078 55.7504 63.8348C57.7615 63.8618 59.3904 63.9035 59.3919 63.9436Z" fill="white"/>
<path d="M72.0974 63.8075C71.866 63.5267 71.6669 63.2208 71.5038 62.8955C71.3063 62.5897 71.1429 62.2631 71.0164 61.9217C71.2489 62.2017 71.4481 62.5078 71.61 62.8337C71.8087 63.1389 71.9722 63.4656 72.0974 63.8075Z" fill="white"/>
</svg>
