<svg width="30" height="26" viewBox="0 0 30 26" fill="none" xmlns="http://www.w3.org/2000/svg">
<path d="M27.5985 2.70196C26.08 1.18341 24.0696 0.353435 21.9239 0.353435C19.7783 0.353435 17.7618 1.18956 16.2432 2.70811L15.4501 3.50119L14.6448 2.69581C13.1262 1.17726 11.1035 0.334991 8.95789 0.334991C6.8184 0.334991 4.80187 1.17111 3.28947 2.68351C1.77093 4.20206 0.934804 6.21859 0.940952 8.36423C0.940952 10.5099 1.78322 12.5203 3.30177 14.0388L14.8476 25.5847C15.0075 25.7445 15.2227 25.8306 15.4317 25.8306C15.6407 25.8306 15.8559 25.7507 16.0158 25.5908L27.5862 14.0634C29.1048 12.5448 29.9409 10.5283 29.9409 8.38268C29.947 6.23704 29.1171 4.2205 27.5985 2.70196ZM26.4181 12.8891L15.4317 23.8325L4.46988 12.8707C3.26488 11.6657 2.6009 10.0672 2.6009 8.36423C2.6009 6.66125 3.25873 5.06278 4.46373 3.86392C5.66259 2.66507 7.26106 2.00109 8.95789 2.00109C10.6609 2.00109 12.2655 2.66507 13.4705 3.87007L14.8599 5.25951C15.1858 5.58535 15.7084 5.58535 16.0342 5.25951L17.4113 3.88237C18.6163 2.67737 20.221 2.01339 21.9178 2.01339C23.6146 2.01339 25.2131 2.67737 26.4181 3.87622C27.6231 5.08122 28.2809 6.67969 28.2809 8.38268C28.2871 10.0857 27.6231 11.6841 26.4181 12.8891Z" fill="#1E1E1E"/>
</svg>
